<?xml version="1.0" standalone="no"?>
<!DOCTYPE svg PUBLIC "-//W3C//DTD SVG 20010904//EN"
 "http://www.w3.org/TR/2001/REC-SVG-20010904/DTD/svg10.dtd">
<svg version="1.0" xmlns="http://www.w3.org/2000/svg"
 width="183.000000pt" height="275.000000pt" viewBox="0 0 183.000000 275.000000"
 preserveAspectRatio="xMidYMid meet">

<g transform="translate(0.000000,275.000000) scale(0.100000,-0.100000)"
fill="#000000" stroke="none">
<path d="M0 1375 l0 -1375 915 0 915 0 0 1375 0 1375 -915 0 -915 0 0 -1375z
m967 679 c-3 -3 -12 -4 -19 -1 -8 3 -5 6 6 6 11 1 17 -2 13 -5z m-77 -34 c0
-5 -5 -10 -11 -10 -5 0 -7 5 -4 10 3 6 8 10 11 10 2 0 4 -4 4 -10z m100 -45
c5 -11 11 -31 13 -45 3 -18 5 -14 6 12 2 56 21 58 21 1 0 -26 5 -55 10 -63 7
-11 10 -2 10 33 0 34 4 47 13 45 18 -6 26 -96 10 -110 -7 -6 -13 -17 -13 -24
0 -8 -10 -14 -22 -14 -35 0 -68 -11 -63 -21 3 -4 -11 -13 -32 -18 -48 -14 -76
-13 -48 0 16 7 14 9 -12 6 -24 -3 -33 1 -36 15 -3 10 -1 21 4 24 16 9 10 21
-13 28 -18 4 -20 8 -10 18 6 6 12 35 12 63 0 39 4 53 20 63 18 11 20 10 21
-15 l0 -28 17 33 c13 27 21 33 39 29 13 -2 26 0 30 6 4 7 8 6 11 -3 2 -8 7
-24 12 -35z m85 25 c4 -6 -1 -7 -11 -3 -13 5 -15 3 -9 -7 5 -9 4 -11 -4 -6 -6
4 -9 12 -6 17 8 12 22 12 30 -1z m-278 -62 c-3 -8 -6 -5 -6 6 -1 11 2 17 5 13
3 -3 4 -12 1 -19z m198 -176 c21 -15 15 -32 -12 -32 -26 0 -26 1 -7 16 18 15
18 15 -11 9 -22 -4 -26 -3 -15 5 18 12 31 12 45 2z m-66 -21 c9 -6 5 -10 -16
-13 -20 -3 -30 0 -30 9 0 15 25 17 46 4z"/>
<path d="M928 1783 c7 -3 16 -2 19 1 4 3 -2 6 -13 5 -11 0 -14 -3 -6 -6z"/>
</g>
</svg>
